<svg xmlns="http://www.w3.org/2000/svg" viewBox="0 0 78.79 67.7"><g id="Layer_2" data-name="Layer 2"><g id="Layer_1-2" data-name="Layer 1"><rect x="36.51" y="5.71" width="5.78" height="18.24" rx="2.89"/><path d="M13.27,24.32l3.32,2.89a1.46,1.46,0,0,1,0,2.21l-3.32,2.87a1.9,1.9,0,0,1-1.76.36L1.07,29.7a1.46,1.46,0,0,1,0-2.82L11.52,24A1.93,1.93,0,0,1,13.27,24.32Z"/><path d="M18.11,44l4.38-.3a1.46,1.46,0,0,1,1.56,1.57l-.32,4.38a1.94,1.94,0,0,1-1,1.5L13.28,56.4a1.47,1.47,0,0,1-2-2l5.32-9.46A1.93,1.93,0,0,1,18.11,44Z"/><path d="M35.41,54.43l2.89-3.31a1.47,1.47,0,0,1,2.21,0l2.87,3.33a1.89,1.89,0,0,1,.36,1.75l-3,10.44a1.46,1.46,0,0,1-2.82,0L35.05,56.18A1.93,1.93,0,0,1,35.41,54.43Z"/><path d="M55.05,49.59l-.3-4.38a1.47,1.47,0,0,1,1.57-1.56L60.7,44a2,2,0,0,1,1.5,1l5.28,9.47a1.46,1.46,0,0,1-2,2L56,51.09A1.9,1.9,0,0,1,55.05,49.59Z"/><path d="M65.52,32.29l-3.31-2.88a1.48,1.48,0,0,1,0-2.22l3.33-2.87A1.91,1.91,0,0,1,67.29,24l10.44,3a1.46,1.46,0,0,1,0,2.81L67.27,32.66A1.91,1.91,0,0,1,65.52,32.29Z"/><path d="M60.68,12.65,56.3,13a1.45,1.45,0,0,1-1.56-1.56L55.06,7a1.93,1.93,0,0,1,1-1.49L65.52.22a1.47,1.47,0,0,1,2,2l-5.33,9.45A1.9,1.9,0,0,1,60.68,12.65Z"/><path d="M23.74,7,24,11.4A1.45,1.45,0,0,1,22.48,13l-4.39-.32a1.88,1.88,0,0,1-1.49-1L11.31,2.19a1.47,1.47,0,0,1,2-2l9.45,5.32A1.93,1.93,0,0,1,23.74,7Z"/><path d="M46,16.77h0a2.75,2.75,0,0,0,1,2.13A12.21,12.21,0,0,1,50.7,32.78,11.45,11.45,0,0,1,44,39.56,12.13,12.13,0,0,1,31.81,18.88a2.7,2.7,0,0,0,1-2.11h0a2.76,2.76,0,0,0-4.48-2.16,17.6,17.6,0,0,0-6.48,15.32c.72,8,8.15,15.36,16.21,16a17.63,17.63,0,0,0,12.5-31.24A2.77,2.77,0,0,0,46,16.77Z"/></g></g></svg>