<svg xmlns="http://www.w3.org/2000/svg" xmlns:xlink="http://www.w3.org/1999/xlink" viewBox="0 0 261.73 186.98"><defs><style>.cls-1{fill:none;}.cls-2{fill:#1b1a3d;}.cls-3{fill:#e6ccca;}.cls-4{fill:#fffefc;}.cls-5{fill:#d0697d;}.cls-6{fill:#d16b7f;}.cls-7{clip-path:url(#clip-path);}</style><clipPath id="clip-path"><rect class="cls-1" x="148.66" y="52.93" width="62.51" height="61.84" transform="translate(-18.49 77.72) rotate(-23.22)"/></clipPath></defs><g id="Layer_2" data-name="Layer 2"><g id="Layer_1-2" data-name="Layer 1"><path class="cls-2" d="M192.6,174.2,167.88,88.6l84.37,34.25Z"/><path class="cls-3" d="M202.08,187l-24.72-85.59,84.37,34.25Z"/><path d="M18.66,58.85,185.59,28.67l-76.31,142.2Z"/><path class="cls-4" d="M25,65.88,192,35.7,115.64,177.89Z"/><polygon points="215.72 165.85 109.89 116.07 111.77 99.7 217.59 149.48 215.72 165.85"/><polygon class="cls-5" points="219.55 170.99 113.72 121.21 115.6 104.84 221.43 154.62 219.55 170.99"/><path class="cls-2" d="M128.17,35.28C121.93,48.08,108.82,57,94.71,56.47,80.88,56,69.45,46.34,70.22,32.05,71,17.92,86.74,4.44,100.08,12.63a13.26,13.26,0,0,1,3.27,19c-5.5,7.07-19.57,5-15.79-5.23C89.93,20,80.34,16.37,78,22.86,70.9,42.1,93.22,54.1,108.51,40.76S115.7,4.57,98.6.71C80.87-3.31,63.35,10.28,60.14,28c-3.34,18.43,8.45,34.24,26,38,20.65,4.41,42.16-7.69,51.62-27.11C140.81,32.61,131.21,29,128.17,35.28Z"/><ellipse cx="51.92" cy="112.8" rx="33.26" ry="31.18"/><ellipse class="cls-3" cx="62.42" cy="122.65" rx="33.26" ry="31.18"/><path class="cls-6" d="M11.16,26.73l-.55,0c-1.09.06-2.17.17-3.26.19A7.85,7.85,0,0,1,2.6,25.65,5.54,5.54,0,0,1,.08,21.8,3.92,3.92,0,0,1,1.6,17.74a4.66,4.66,0,0,1,2.46-.82,3.88,3.88,0,0,1,.59,0,11.61,11.61,0,0,0,3.22-.41,12.9,12.9,0,0,1,3.57-.26,28.14,28.14,0,0,1,4.56.43A6.91,6.91,0,0,1,20,19.38a8.73,8.73,0,0,1,1.6,5.84,7.89,7.89,0,0,1-.41,2.43c-.35,1.07-.7,2.15-1,3.23a20,20,0,0,0-1,3.82,4.76,4.76,0,0,0,.43,2.83,9.26,9.26,0,0,0,1.19,1.95,2.82,2.82,0,0,0,1.84.92,8.67,8.67,0,0,0,2.74-.21,35.06,35.06,0,0,0,4.86-1.27,24.45,24.45,0,0,1,4.62-1.25,11.63,11.63,0,0,1,6.89.9,12.38,12.38,0,0,1,4.91,4.11c.37.52.73,1,1.08,1.58a2.47,2.47,0,0,1,.24.49,16.46,16.46,0,0,1,1.4,6.18,25.52,25.52,0,0,1-.42,5,45.4,45.4,0,0,1-1.24,5.21A16.75,16.75,0,0,1,45.4,66a23,23,0,0,1-3.19,4,33.49,33.49,0,0,1-2.62,2.14,6.23,6.23,0,0,1-2.21.91,1.79,1.79,0,0,1-1.81-1,3.82,3.82,0,0,1-.36-1,11.86,11.86,0,0,1,0-5.07c.24-1,.39-2,.66-3a24.37,24.37,0,0,1,.94-2.81A41.35,41.35,0,0,0,38.25,56c.2-.68.43-1.33.64-2a10.06,10.06,0,0,0,.55-2.57c0-.57.1-1.13.14-1.69a1.79,1.79,0,0,0-1.82-2.14,2.93,2.93,0,0,0-.84.06,13.36,13.36,0,0,0-2.15.57c-.53.22-1.1.33-1.66.5s-1,.34-1.57.49a30.3,30.3,0,0,1-6.91,1.27,13.39,13.39,0,0,1-4.21-.4,11.28,11.28,0,0,1-3.57-1.63,16,16,0,0,1-4.13-4.39,22.24,22.24,0,0,1-2.06-4,12.65,12.65,0,0,1-.83-3.35,15.71,15.71,0,0,1,0-4.11c.11-.73.21-1.47.38-2.17.25-1,.56-2,.82-3A7.35,7.35,0,0,0,11.16,26.73Z"/><g class="cls-7"><path class="cls-2" d="M156.06,77.52c4.38-10.08,14.38-16.87,25.58-16.18,11,.67,20.43,8.59,20.44,20S190.2,103,179.28,96.19c-4.9-3.06-7-10.36-3.42-15.26,4.06-5.53,15.28-3.61,12.73,4.51-1.59,5.08,6.15,8.18,7.75,3,4.76-15.2-13.43-25.23-24.93-14.92s-4.13,28.71,9.57,32.16c14.2,3.57,27.49-6.9,29.27-21,1.85-14.64-8.17-27.49-22.23-30.85-16.54-4-33,5.24-39.69,20.53-2.15,4.93,5.62,8,7.74,3Z"/><path class="cls-5" d="M154.06,84.6c4.38-10.08,14.38-16.87,25.58-16.18,11,.66,20.42,8.59,20.44,20s-11.89,21.68-22.8,14.87c-4.91-3.06-7-10.37-3.42-15.26,4-5.52,15.27-3.62,12.73,4.5-1.59,5.09,6.15,8.19,7.74,3,4.76-15.2-13.42-25.24-25-14.92s-4.13,28.72,9.57,32.16c14.21,3.58,27.49-6.89,29.27-21C210.07,77.21,200.05,64.36,186,61c-16.53-4-33,5.24-39.69,20.54-2.14,4.93,5.62,8,7.75,3Z"/></g></g></g></svg>