<svg xmlns="http://www.w3.org/2000/svg" viewBox="0 0 273.27 335.85"><defs><style>.cls-1{fill:#d2d2d2;}.cls-2{fill:gray;}.cls-3{fill:silver;}.cls-4{fill:#1b1a3d;}.cls-5,.cls-6,.cls-7{fill:none;stroke-width:4px;}.cls-5{stroke:#fff;}.cls-6{stroke:gray;}.cls-7{stroke:#000;}.cls-8{fill:#d0697d;}.cls-9{fill:#fffefc;}</style></defs><g id="Layer_2" data-name="Layer 2"><g id="Layer_1-2" data-name="Layer 1"><path class="cls-1" d="M2.24,201.75l119.14-62.87,150.14,77.88-121.4,62Z"/><path class="cls-2" d="M24.84,199.47l105.74-55.8L263,212.61l-52.87,27.9-26.44,14-10,5.33h-33l-16.55-8.62L91,233.94Z"/><path class="cls-3" d="M20.16,34.94,55,16.59l126.48,65.9-34.79,18.36Z"/><path class="cls-3" d="M2,202l148,77.56V334.1L2,256.54Z"/><path class="cls-3" d="M19.92,35.29l126.16,66.13v142.2L19.92,177.48Z"/><path class="cls-4" d="M39.53,72.15l88.39,46V203.5l-88.39-46Z"/><path class="cls-2" d="M271.52,216.76,150,278.81v54.54l121.81-63Z"/><path class="cls-2" d="M181.68,82.41l-35.84,18.53.48,142.77,35.36-18.54Z"/><path class="cls-3" d="M178.29,2.1,70,24.12,181.68,81.91,256,41.38Z"/><path class="cls-2" d="M258,115.18l-74.82,77.31h-1V83.16l74.58-40.78Z"/><path class="cls-2" d="M250.69,123.94l-68.29,69.8v14l68.29-34.52Z"/><path class="cls-5" d="M127.92,117.94V203.5l-88.39-46"/><path class="cls-5" d="M2,257V201.75l31-16.26"/><path class="cls-5" d="M2.24,202l148,77.06"/><path class="cls-5" d="M137.85,295.32l-29.3-15.26"/><path class="cls-6" d="M137.85,293.07l-29.3-15.26"/><path class="cls-5" d="M19.92,178.48V35.12m0,0,126.4,66.05M19.92,35.12,54.79,16.61l15,7.77M181.43,82.16,69.8,24.38m0,0L178.29,2.1,256,41.38"/><path class="cls-7" d="M19.68,177.48l126.64,66.3,35.6-19V208m0-14V82.66l74.34-40.78,1.45,73.3-7.26,7.56M181.92,194l68.53-71.25M181.92,194v14m68.53-85.26v50.49l-31.72,16.1M181.92,208l36.81-18.67m0,0,52.54,27.43V270.3L150.2,333.6,1.76,256.54"/><ellipse class="cls-2" cx="15.56" cy="230.27" rx="2.91" ry="3"/><ellipse class="cls-8" cx="15.08" cy="229.27" rx="2.91" ry="3"/><ellipse class="cls-2" cx="117.26" cy="213.76" rx="2.91" ry="3"/><ellipse class="cls-8" cx="116.78" cy="212.76" rx="2.91" ry="3"/><path class="cls-9" d="M80.5,113.5v13.29a2.34,2.34,0,0,0,1.13,1.87l2.2,1.14a.72.72,0,0,0,1.14-.69V115.83A2.31,2.31,0,0,0,83.83,114l-2.2-1.14A.71.71,0,0,0,80.5,113.5Z"/><path class="cls-9" d="M62.55,119.06l2.55,3.83a2.62,2.62,0,0,1,.29.58,1.77,1.77,0,0,1,.1.58,1,1,0,0,1-.1.48.6.6,0,0,1-.29.28L62.53,126a.93.93,0,0,1-.64,0,1.89,1.89,0,0,1-.71-.4l-8.06-6.76a2.42,2.42,0,0,1-.6-.77,2,2,0,0,1-.23-.88.87.87,0,0,1,.23-.65.63.63,0,0,1,.6-.15L61.19,118a1.78,1.78,0,0,1,.71.34A2.64,2.64,0,0,1,62.55,119.06Z"/><path class="cls-9" d="M66.29,138.05l3.38,1.5a1.59,1.59,0,0,1,.48.33,2.2,2.2,0,0,1,.4.5,2.36,2.36,0,0,1,.26.59,1.65,1.65,0,0,1,.07.57l-.25,3.67a1.08,1.08,0,0,1-.24.64.74.74,0,0,1-.52.27l-7.32.78a1.08,1.08,0,0,1-.71-.22,2.24,2.24,0,0,1-.64-.69,2.14,2.14,0,0,1-.32-.89,1.05,1.05,0,0,1,.13-.73l4.11-6.07a.81.81,0,0,1,.49-.34A1.19,1.19,0,0,1,66.29,138.05Z"/><path class="cls-9" d="M79.65,154.09l2.23-1.7a.59.59,0,0,1,.39-.12,1.13,1.13,0,0,1,.47.12,2.18,2.18,0,0,1,.47.36,2.66,2.66,0,0,1,.38.53l2.23,4a3.15,3.15,0,0,1,.31.89,1.82,1.82,0,0,1,0,.78l-2.28,7.88a.66.66,0,0,1-.41.46.89.89,0,0,1-.68-.1,2.07,2.07,0,0,1-.69-.61,2.38,2.38,0,0,1-.4-.89c-.9-4.09-1.35-6.14-2.26-10.24a2,2,0,0,1,0-.83A1,1,0,0,1,79.65,154.09Z"/><path class="cls-9" d="M94.82,157.78c-.09-1.57-.14-2.35-.23-3.92a1.12,1.12,0,0,1,.07-.5.7.7,0,0,1,.26-.32.69.69,0,0,1,.41-.08,1.34,1.34,0,0,1,.47.17l3.39,2a2.59,2.59,0,0,1,.67.62,3,3,0,0,1,.48.84c1.64,4.14,2.45,6.21,4.09,10.36a1.79,1.79,0,0,1,.13.86.67.67,0,0,1-1,.58,1.85,1.85,0,0,1-.71-.52l-7.3-8.42a3.17,3.17,0,0,1-.52-.82A2.52,2.52,0,0,1,94.82,157.78Z"/><path class="cls-9" d="M102.91,147l-2.55-3.83a2.62,2.62,0,0,1-.29-.58,1.77,1.77,0,0,1-.1-.58,1.06,1.06,0,0,1,.1-.48.65.65,0,0,1,.29-.28l2.57-1.17a1,1,0,0,1,.64,0,2,2,0,0,1,.71.4l8.06,6.76a2.42,2.42,0,0,1,.6.77,2,2,0,0,1,.23.88.87.87,0,0,1-.23.65.63.63,0,0,1-.6.15L104.27,148a1.65,1.65,0,0,1-.71-.34A2.82,2.82,0,0,1,102.91,147Z"/><path class="cls-9" d="M99.17,128l-3.38-1.5a1.91,1.91,0,0,1-.48-.32,2.5,2.5,0,0,1-.4-.51,2.79,2.79,0,0,1-.26-.59,1.65,1.65,0,0,1-.07-.57l.25-3.68a1.15,1.15,0,0,1,.24-.63.78.78,0,0,1,.52-.27l7.33-.78a1.09,1.09,0,0,1,.71.21,2.4,2.4,0,0,1,.64.7,2.18,2.18,0,0,1,.32.9,1,1,0,0,1-.13.72c-1.65,2.43-2.47,3.65-4.12,6.07a.72.72,0,0,1-.49.34A1.2,1.2,0,0,1,99.17,128Z"/><path class="cls-9" d="M70.64,108.24c.09,1.57.14,2.35.23,3.92a1.12,1.12,0,0,1-.07.5.59.59,0,0,1-.26.32.66.66,0,0,1-.4.08,1.39,1.39,0,0,1-.48-.17l-3.38-2a2.8,2.8,0,0,1-.68-.62,3.33,3.33,0,0,1-.48-.84L61,99a1.83,1.83,0,0,1-.14-.86.75.75,0,0,1,.32-.56.73.73,0,0,1,.65,0,2,2,0,0,1,.71.52l7.3,8.42a3.78,3.78,0,0,1,.53.83A2.73,2.73,0,0,1,70.64,108.24Z"/><path class="cls-9" d="M87.83,125.64a3.35,3.35,0,0,0,.21,1.13,4.62,4.62,0,0,0,.57,1.13c2.92,4.18,4.4,9.55,2.85,13.53a5.12,5.12,0,0,1-2,2.54,5.05,5.05,0,0,1-3.16.66c-6.64-.66-12.91-9.4-12.91-16.48a8.37,8.37,0,0,1,.92-4.06,5,5,0,0,1,2.58-2.31,1.13,1.13,0,0,0,.56-.52,1.85,1.85,0,0,0,.2-.91,3.58,3.58,0,0,0-.33-1.45,4.45,4.45,0,0,0-.88-1.34,3.29,3.29,0,0,0-1.16-.84,1.6,1.6,0,0,0-1.09-.06,7.31,7.31,0,0,0-4,3.88,13.75,13.75,0,0,0-1,6.83c.56,7.27,6.3,16.61,12.52,20.37a12.12,12.12,0,0,0,8.25,2,7.24,7.24,0,0,0,5.45-4.48,15.54,15.54,0,0,0,.54-9.24,28.75,28.75,0,0,0-4.58-10.42,4.3,4.3,0,0,0-1.1-1.11,2.16,2.16,0,0,0-1.18-.41,1.1,1.1,0,0,0-.9.42A1.75,1.75,0,0,0,87.83,125.64Z"/></g></g></svg>