<svg xmlns="http://www.w3.org/2000/svg" viewBox="0 0 191.13 164.23"><defs><style>.cls-1{fill:#d0697d;}</style></defs><g id="Layer_2" data-name="Layer 2"><g id="Layer_1-2" data-name="Layer 1"><rect class="cls-1" x="73.44" y="28.96" width="44.24" height="14.03" rx="3.56" transform="translate(59.59 131.54) rotate(-90)"/><path class="cls-1" d="M32.2,59l8,7a3.55,3.55,0,0,1,0,5.37l-8.07,7a4.68,4.68,0,0,1-4.25.87L2.58,72a3.55,3.55,0,0,1,0-6.84L28,58.12A4.63,4.63,0,0,1,32.2,59Z"/><path class="cls-1" d="M43.93,106.64l10.62-.73a3.55,3.55,0,0,1,3.79,3.8l-.77,10.63a4.68,4.68,0,0,1-2.4,3.63l-23,12.83A3.55,3.55,0,0,1,27.38,132L40.29,109A4.67,4.67,0,0,1,43.93,106.64Z"/><path class="cls-1" d="M85.91,132l7-8a3.55,3.55,0,0,1,5.37,0l7,8.07a4.65,4.65,0,0,1,.87,4.25l-7.17,25.32a3.55,3.55,0,0,1-6.84,0L85,136.28A4.63,4.63,0,0,1,85.91,132Z"/><path class="cls-1" d="M133.54,120.3l-.73-10.62a3.55,3.55,0,0,1,3.8-3.79l10.63.77a4.68,4.68,0,0,1,3.63,2.4l12.83,23a3.55,3.55,0,0,1-4.85,4.83l-22.93-12.91A4.67,4.67,0,0,1,133.54,120.3Z"/><path class="cls-1" d="M158.93,78.32l-8-7a3.55,3.55,0,0,1,0-5.37L159,59a4.66,4.66,0,0,1,4.25-.87l25.32,7.17a3.55,3.55,0,0,1,0,6.84l-25.34,7.08A4.65,4.65,0,0,1,158.93,78.32Z"/><path class="cls-1" d="M147.2,30.69l-10.62.73a3.55,3.55,0,0,1-3.79-3.8L133.56,17a4.68,4.68,0,0,1,2.4-3.63l23-12.83a3.55,3.55,0,0,1,4.82,4.85L150.84,28.31A4.67,4.67,0,0,1,147.2,30.69Z"/><path class="cls-1" d="M57.59,17l.73,10.62a3.55,3.55,0,0,1-3.8,3.79l-10.63-.77a4.68,4.68,0,0,1-3.63-2.4L27.43,5.3A3.55,3.55,0,0,1,32.28.48L55.21,13.39A4.67,4.67,0,0,1,57.59,17Z"/><path class="cls-1" d="M111.59,40.68h0A6.64,6.64,0,0,0,114,45.84c9.19,7.44,13.82,20.3,9,33.67A27.69,27.69,0,0,1,106.74,96c-20.84,7.8-40.55-7.49-40.55-27.3a29.32,29.32,0,0,1,11-22.86,6.54,6.54,0,0,0,2.38-5.12h0a6.7,6.7,0,0,0-10.87-5.25A42.69,42.69,0,0,0,53,72.59c1.75,19.52,19.78,37.26,39.31,38.73A42.76,42.76,0,0,0,122.6,35.54,6.71,6.71,0,0,0,111.59,40.68Z"/></g></g></svg>