<svg xmlns="http://www.w3.org/2000/svg" xmlns:xlink="http://www.w3.org/1999/xlink" viewBox="0 0 243.31 198.97"><defs><style>.cls-1{fill:none;}.cls-2{fill:#fffefc;}.cls-3{fill:#d0697d;}.cls-4{fill:#1b1a3d;}.cls-5{fill:#e6ccca;}.cls-6{clip-path:url(#clip-path);}</style><clipPath id="clip-path" transform="translate(-14.87)"><rect class="cls-1" x="14.44" y="37.66" width="96.55" height="93.07" transform="translate(-28.12 31.54) rotate(-23.22)"/></clipPath></defs><g id="Layer_2" data-name="Layer 2"><g id="Layer_1-2" data-name="Layer 1"><polygon points="45.43 2.12 99.9 25.32 93.73 31.54 39.26 8.34 45.43 2.12"/><polygon class="cls-2" points="53.34 0 107.82 23.2 101.65 29.42 47.17 6.22 53.34 0"/><ellipse cx="64.69" cy="183.72" rx="13.34" ry="15.25"/><ellipse class="cls-3" cx="68.9" cy="178.9" rx="13.34" ry="15.25"/><path class="cls-4" d="M225,27c14.92,10.26,22.89,28.31,18.49,45.78-4.3,17.11-19.89,29.46-38.19,25.71-18.1-3.71-31.34-26-17.16-41,6.37-6.74,18.74-7.64,25.55-.35,7.69,8.23,1.3,25.34-11,18.63-7.71-4.21-15,7-7.22,11.24,23,12.55,44.55-12.88,31.37-34.52s-45-16-54.54,4.51c-9.94,21.28,3,45.74,25,53.2,23,7.76,46.62-3.83,56.17-25,11.25-24.84,1.33-54-21.29-69.54C224.94,10.69,217.74,22,225,27Z" transform="translate(-14.87)"/><path d="M18.93,34.71,194,2.36,112.25,163.47Z" transform="translate(-14.87)"/><path class="cls-5" d="M25.49,42.8l175-32.36L118.81,171.55Z" transform="translate(-14.87)"/><path class="cls-2" d="M140.7,138.61c1.44-1.07,2.8-2.08,4.15-3.1l25.36-19.3c2.57-2,3.28-1.92,4.47.22l13.95,25.07c.57,1,1.14,2,1.69,3.06a2.4,2.4,0,0,1-.42,2.73c-1,1.36-2.34,1.73-3.6,1a12.39,12.39,0,0,1-1.6-1.17q-5.77-4.74-11.5-9.5a1.47,1.47,0,0,0-1.79-.13q-17.53,7.84-35.09,15.65c-1.89.85-2.5.76-3.36-.58-2.55-3.93-5.1-7.86-7.6-11.82-.4-.63-.83-.76-1.73-.4q-11.8,4.59-23.59,9.12l-.53.2c-1.6.55-2.37.17-2.49-1.35s-.16-3.27-.24-4.91c-.11-2.31-.22-4.62-.33-7.08-.41.09-.83.15-1.24.26-5.24,1.4-10.49,2.82-15.72,4.19-1.75.46-3.49.84-5.22,1.17a5.16,5.16,0,0,1-2,0c-1.16-.25-1.53-1.9.07-3s3.41-2.5,5.16-3.58q12.43-7.62,24.89-15.15c2-1.21,3-.85,3.17,1.15.36,4.57.68,9.15,1,13.73,0,.45.09.89.16,1.46.53-.28,1-.49,1.36-.73l25-15.19.5-.31c1.65-1,2.64-.74,3,.76s.69,3,1,4.55q1.35,6.09,2.69,12.18A7,7,0,0,0,140.7,138.61Z" transform="translate(-14.87)"/><g class="cls-6"><path class="cls-4" d="M52.27,120.15c-15.51-6.31-25.78-21.13-24.41-38C29.18,65.73,41.71,51.33,59.39,51c17.44-.31,33.28,17.26,22.43,33.81C77,92.26,65.58,95.6,58.08,90.35c-8.46-5.94-5.2-22.82,7.31-19.22,7.84,2.26,12.85-9.44,4.92-11.69-23.43-6.75-39.46,20.8-23.78,37.79S90.92,102.67,96.62,82c5.91-21.41-10-41.07-31.72-43.36-22.63-2.39-42.82,13-48.39,34.15-6.57,24.91,7.26,49.43,30.79,59,7.58,3.09,12.55-8.63,4.92-11.69Z" transform="translate(-14.87)"/><path class="cls-3" d="M60.81,123C45.3,116.66,35,101.84,36.4,85c1.31-16.46,13.85-30.85,31.52-31.18,17.44-.32,33.29,17.26,22.44,33.81-4.87,7.44-16.25,10.78-23.74,5.53-8.45-5.89-5.2-22.82,7.31-19.21,7.84,2.25,12.85-9.44,4.91-11.7-23.43-6.74-39.47,20.8-23.77,37.83s44.4,5.44,50.09-15.2c5.92-21.41-10-41.07-31.7-43.37-22.64-2.39-42.83,13-48.4,34.16-6.57,24.9,7.27,49.42,30.8,59,7.58,3.08,12.54-8.64,4.91-11.7Z" transform="translate(-14.87)"/></g></g></g></svg>