<?xml version="1.0" encoding="utf-8"?>
<!-- Generator: Adobe Illustrator 19.0.0, SVG Export Plug-In . SVG Version: 6.00 Build 0)  -->
<svg version="1.1" id="Layer_1" xmlns="http://www.w3.org/2000/svg" xmlns:xlink="http://www.w3.org/1999/xlink" x="0px" y="0px"
	 viewBox="0 0 100 100" style="enable-background:new 0 0 100 100;" xml:space="preserve">
<style type="text/css">
	.st0{fill:#F68A39;}
	.st1{font-family:'AvenirNext-DemiBold';}
	.st2{font-size:11.9604px;}
</style>
<path id="XMLID_13_" class="st0" d="M53.3,16.2v14c0,0.6-0.5,1-1,1h-3.1c-0.6,0-1-0.5-1-1v-14c0-0.6,0.5-1,1-1h3.1
	C52.9,15.2,53.3,15.6,53.3,16.2"/>
<path id="XMLID_12_" class="st0" d="M27.8,31.6l2.9,2.5c0.6,0.5,0.6,1.4,0,1.9l-2.9,2.5c-0.4,0.3-1,0.5-1.5,0.3L17,36.3
	c-1.3-0.4-1.3-2.1,0-2.5l9.2-2.6C26.8,31.1,27.3,31.2,27.8,31.6"/>
<path id="XMLID_11_" class="st0" d="M32,48.9l3.9-0.3c0.8-0.1,1.4,0.6,1.4,1.4L37,53.9c0,0.5-0.4,1-0.9,1.3l-8.3,4.7
	c-1.1,0.6-2.4-0.6-1.8-1.8l4.7-8.3C31,49.3,31.5,48.9,32,48.9"/>
<path id="XMLID_10_" class="st0" d="M47.3,58.1l2.5-2.9c0.5-0.6,1.4-0.6,1.9,0l2.5,2.9c0.3,0.4,0.5,1,0.3,1.5L52,68.9
	c-0.4,1.3-2.1,1.3-2.5,0l-2.6-9.2C46.8,59.1,46.9,58.5,47.3,58.1"/>
<path id="XMLID_9_" class="st0" d="M64.5,53.8L64.3,50c-0.1-0.8,0.6-1.4,1.4-1.4l3.9,0.3c0.5,0,1,0.4,1.3,0.9l4.7,8.3
	c0.6,1.1-0.6,2.4-1.8,1.8l-8.3-4.7C64.9,54.9,64.6,54.4,64.5,53.8"/>
<path id="XMLID_8_" class="st0" d="M73.8,38.6l-2.9-2.5c-0.6-0.5-0.6-1.4,0-1.9l2.9-2.5c0.4-0.3,1-0.5,1.5-0.3l9.2,2.6
	c1.3,0.4,1.3,2.1,0,2.5l-9.2,2.6C74.8,39.1,74.2,39,73.8,38.6"/>
<path id="XMLID_7_" class="st0" d="M69.5,21.3l-3.9,0.3c-0.8,0.1-1.4-0.6-1.4-1.4l0.3-3.9c0-0.5,0.4-1,0.9-1.3l8.3-4.7
	c1.1-0.6,2.4,0.6,1.8,1.8l-4.7,8.3C70.5,20.9,70,21.3,69.5,21.3"/>
<path id="XMLID_6_" class="st0" d="M37,16.3l0.3,3.9c0.1,0.8-0.6,1.4-1.4,1.4L32,21.3c-0.5,0-1-0.4-1.3-0.9L26,12.1
	c-0.6-1.1,0.6-2.4,1.8-1.8l8.3,4.7C36.6,15.3,36.9,15.8,37,16.3"/>
<path id="XMLID_5_" class="st0" d="M56.6,24.9L56.6,24.9c0,0.7,0.3,1.4,0.9,1.9c3.3,2.7,5,7.4,3.3,12.2c-1,2.7-3.2,4.9-5.9,6
	c-7.6,2.8-14.7-2.7-14.7-9.9c0-3.4,1.6-6.3,4-8.3c0.6-0.4,0.9-1.1,0.9-1.9c0-2-2.4-3.2-3.9-1.9c-3.9,3.1-6.2,8.1-5.7,13.5
	c0.6,7.1,7.2,13.5,14.3,14.1c9.1,0.7,16.7-6.5,16.7-15.5c0-4.8-2.2-9.2-5.7-12C59,21.8,56.6,22.9,56.6,24.9"/>
<text id="XMLID_2_" transform="matrix(1 0 0 1 25.3199 84.1751)"><tspan x="0" y="0" class="st0 st1 st2">sunhac</tspan><tspan x="38.6" y="0" class="st0 st1 st2">k</tspan><tspan x="45.1" y="0" class="st0 st1 st2">s</tspan></text>
</svg>
