<?xml version="1.0" encoding="utf-8"?>
<!-- Generator: Adobe Illustrator 19.0.0, SVG Export Plug-In . SVG Version: 6.00 Build 0)  -->
<svg version="1.1" id="Layer_1" xmlns="http://www.w3.org/2000/svg" xmlns:xlink="http://www.w3.org/1999/xlink" x="0px" y="0px"
	 viewBox="0 0 100 100" style="enable-background:new 0 0 100 100;" xml:space="preserve">
<style type="text/css">
	.st0{fill:#FAA31B;}
</style>
<g id="XMLID_2_">
	<g id="XMLID_230_">
		<path id="XMLID_257_" class="st0" d="M53.4,9.1v18.6c0,0.7-0.6,1.3-1.3,1.3H48c-0.7,0-1.3-0.6-1.3-1.3V9.1c0-0.7,0.6-1.3,1.3-1.3
			H52C52.8,7.7,53.4,8.3,53.4,9.1"/>
		<path id="XMLID_256_" class="st0" d="M19.6,29.4l3.9,3.4c0.8,0.7,0.8,1.9,0,2.6l-3.9,3.3c-0.5,0.5-1.3,0.6-2,0.4L5.4,35.7
			c-1.7-0.5-1.7-2.8,0-3.3L17.5,29C18.3,28.8,19.1,28.9,19.6,29.4"/>
		<path id="XMLID_255_" class="st0" d="M25.2,52.3l5.1-0.4c1-0.1,1.9,0.8,1.8,1.8l-0.4,5.1c-0.1,0.7-0.5,1.4-1.1,1.7l-11,6.2
			c-1.5,0.8-3.2-0.8-2.3-2.3l6.2-11C23.8,52.8,24.5,52.3,25.2,52.3"/>
		<path id="XMLID_254_" class="st0" d="M45.4,64.4l3.4-3.9c0.7-0.8,1.9-0.8,2.6,0l3.3,3.9c0.5,0.5,0.6,1.3,0.4,2l-3.4,12.2
			c-0.5,1.7-2.8,1.7-3.3,0l-3.4-12.2C44.7,65.8,44.9,65,45.4,64.4"/>
		<path id="XMLID_253_" class="st0" d="M68.2,58.8l-0.4-5.1c-0.1-1,0.8-1.9,1.8-1.8l5.1,0.4c0.7,0.1,1.4,0.5,1.7,1.1l6.2,11
			c0.8,1.5-0.8,3.2-2.3,2.3l-11-6.2C68.7,60.2,68.3,59.5,68.2,58.8"/>
		<path id="XMLID_252_" class="st0" d="M80.4,38.7l-3.9-3.4c-0.8-0.7-0.8-1.9,0-2.6l3.9-3.3c0.5-0.5,1.3-0.6,2-0.4l12.2,3.4
			c1.7,0.5,1.7,2.8,0,3.3l-12.2,3.4C81.7,39.3,80.9,39.1,80.4,38.7"/>
		<path id="XMLID_251_" class="st0" d="M74.8,15.8l-5.1,0.4c-1,0.1-1.9-0.8-1.8-1.8l0.4-5.1c0.1-0.7,0.5-1.4,1.1-1.7l11-6.2
			c1.5-0.8,3.2,0.8,2.3,2.3l-6.2,11C76.2,15.3,75.5,15.8,74.8,15.8"/>
		<path id="XMLID_250_" class="st0" d="M31.8,9.2l0.4,5.1c0.1,1-0.8,1.9-1.8,1.8l-5.1-0.4c-0.7-0.1-1.4-0.5-1.7-1.1l-6.2-11
			c-0.8-1.5,0.8-3.2,2.3-2.3l11,6.2C31.3,7.9,31.7,8.5,31.8,9.2"/>
		<path id="XMLID_249_" class="st0" d="M57.7,20.6L57.7,20.6c0,1,0.4,1.9,1.2,2.5c4.4,3.6,6.6,9.7,4.3,16.2
			c-1.3,3.6-4.2,6.5-7.8,7.9c-10,3.7-19.5-3.6-19.5-13.1c0-4.4,2.1-8.4,5.3-11c0.7-0.6,1.1-1.5,1.1-2.5c0-2.7-3.1-4.2-5.2-2.5
			c-5.1,4.1-8.2,10.7-7.5,17.8c0.8,9.4,9.5,17.9,18.9,18.6c12,0.9,22.1-8.6,22.1-20.5c0-6.4-3-12.1-7.6-15.9
			C60.9,16.4,57.7,17.9,57.7,20.6"/>
		<g id="XMLID_231_">
			<path id="XMLID_247_" class="st0" d="M21.7,93.4c-0.2-0.2-0.4-0.4-0.7-0.6c-0.3-0.2-0.6-0.2-1-0.2c-0.3,0-0.6,0.1-0.8,0.2
				c-0.3,0.1-0.4,0.3-0.4,0.6s0.1,0.5,0.4,0.6c0.3,0.1,0.7,0.2,1.2,0.4c0.3,0.1,0.6,0.1,0.9,0.3c0.3,0.1,0.6,0.2,0.8,0.4
				c0.2,0.2,0.4,0.4,0.6,0.6c0.1,0.3,0.2,0.6,0.2,0.9c0,0.5-0.1,0.9-0.3,1.2c-0.2,0.3-0.4,0.6-0.7,0.8c-0.3,0.2-0.6,0.3-1,0.4
				c-0.4,0.1-0.8,0.1-1.2,0.1c-0.6,0-1.2-0.1-1.7-0.3c-0.6-0.2-1-0.5-1.4-0.9l1.2-1.2c0.2,0.3,0.5,0.5,0.8,0.7
				c0.3,0.2,0.7,0.3,1.1,0.3c0.1,0,0.3,0,0.4,0s0.3-0.1,0.4-0.2c0.1-0.1,0.2-0.2,0.3-0.3c0.1-0.1,0.1-0.3,0.1-0.4
				c0-0.3-0.1-0.5-0.4-0.7c-0.3-0.1-0.7-0.3-1.3-0.4c-0.3-0.1-0.6-0.1-0.8-0.2s-0.5-0.2-0.7-0.4c-0.2-0.2-0.4-0.4-0.5-0.6
				c-0.1-0.2-0.2-0.5-0.2-0.9c0-0.4,0.1-0.8,0.3-1.1c0.2-0.3,0.4-0.6,0.7-0.8c0.3-0.2,0.6-0.3,1-0.4c0.4-0.1,0.7-0.1,1.1-0.1
				c0.5,0,1.1,0.1,1.6,0.3c0.5,0.2,0.9,0.5,1.2,0.9L21.7,93.4z"/>
			<path id="XMLID_245_" class="st0" d="M31.5,98.9h-1.8v-1.2h0c-0.2,0.4-0.5,0.7-0.9,1c-0.4,0.3-0.9,0.4-1.5,0.4
				c-0.5,0-0.9-0.1-1.3-0.3c-0.4-0.2-0.6-0.4-0.9-0.7c-0.2-0.3-0.4-0.6-0.5-1s-0.2-0.7-0.2-1.1v-4.7h1.9v4.2c0,0.2,0,0.5,0,0.7
				c0,0.2,0.1,0.5,0.2,0.7c0.1,0.2,0.3,0.4,0.4,0.5c0.2,0.1,0.4,0.2,0.7,0.2c0.3,0,0.6-0.1,0.8-0.2c0.2-0.1,0.4-0.3,0.6-0.5
				c0.1-0.2,0.3-0.4,0.3-0.7c0.1-0.2,0.1-0.5,0.1-0.8v-4.2h1.9V98.9z"/>
			<path id="XMLID_243_" class="st0" d="M33.7,91.3h1.8v1.2h0c0.2-0.4,0.5-0.7,0.9-1c0.4-0.3,0.9-0.4,1.5-0.4c0.5,0,0.9,0.1,1.3,0.3
				c0.4,0.2,0.6,0.4,0.9,0.7c0.2,0.3,0.4,0.6,0.5,1c0.1,0.4,0.2,0.7,0.2,1.1v4.7h-1.9v-4.2c0-0.2,0-0.5,0-0.7c0-0.2-0.1-0.5-0.2-0.7
				c-0.1-0.2-0.3-0.4-0.4-0.5s-0.4-0.2-0.7-0.2c-0.3,0-0.6,0.1-0.8,0.2c-0.2,0.1-0.4,0.3-0.5,0.5c-0.1,0.2-0.3,0.4-0.3,0.7
				c-0.1,0.2-0.1,0.5-0.1,0.8v4.2h-1.9V91.3z"/>
			<path id="XMLID_241_" class="st0" d="M47.2,91.1c0.5,0,0.9,0.1,1.3,0.3c0.4,0.2,0.6,0.4,0.9,0.7c0.2,0.3,0.4,0.6,0.5,1
				c0.1,0.4,0.2,0.7,0.2,1.1v4.7h-1.9v-4.2c0-0.2,0-0.5,0-0.7c0-0.2-0.1-0.5-0.2-0.6c-0.1-0.2-0.2-0.4-0.4-0.5
				c-0.2-0.1-0.4-0.2-0.7-0.2c-0.3,0-0.6,0.1-0.8,0.2c-0.2,0.1-0.4,0.3-0.6,0.5S45,93.8,45,94c-0.1,0.2-0.1,0.5-0.1,0.7v4.1H43V87
				h1.9v5.4h0c0.1-0.2,0.2-0.3,0.3-0.5c0.1-0.2,0.3-0.3,0.5-0.4c0.2-0.1,0.4-0.2,0.6-0.3C46.6,91.1,46.9,91.1,47.2,91.1z"/>
			<path id="XMLID_238_" class="st0" d="M56.9,98L56.9,98c-0.2,0.3-0.5,0.6-1,0.8c-0.4,0.2-0.9,0.3-1.4,0.3c-0.3,0-0.6,0-1-0.1
				c-0.3-0.1-0.6-0.2-0.9-0.4c-0.3-0.2-0.5-0.4-0.7-0.7c-0.2-0.3-0.3-0.7-0.3-1.1c0-0.6,0.2-1,0.5-1.4c0.3-0.3,0.7-0.6,1.2-0.8
				c0.5-0.2,1.1-0.3,1.7-0.4c0.6-0.1,1.2-0.1,1.8-0.1V94c0-0.5-0.2-0.8-0.5-1.1c-0.3-0.2-0.8-0.3-1.2-0.3c-0.4,0-0.8,0.1-1.2,0.3
				c-0.4,0.2-0.7,0.4-0.9,0.6l-1-1.2c0.4-0.4,0.9-0.7,1.5-0.9c0.6-0.2,1.1-0.3,1.7-0.3c0.7,0,1.2,0.1,1.7,0.3c0.4,0.2,0.8,0.4,1,0.7
				c0.3,0.3,0.4,0.6,0.5,1c0.1,0.4,0.2,0.8,0.2,1.1v4.6h-1.8V98z M56.8,95.5h-0.4c-0.3,0-0.6,0-1,0c-0.3,0-0.6,0.1-0.9,0.2
				c-0.3,0.1-0.5,0.2-0.7,0.4c-0.2,0.2-0.3,0.4-0.3,0.7c0,0.2,0,0.3,0.1,0.5c0.1,0.1,0.2,0.2,0.3,0.3c0.1,0.1,0.3,0.1,0.4,0.2
				s0.3,0,0.5,0c0.7,0,1.1-0.2,1.5-0.5c0.3-0.3,0.5-0.8,0.5-1.4V95.5z"/>
			<path id="XMLID_236_" class="st0" d="M66.1,93.4c-0.1-0.2-0.4-0.4-0.7-0.5c-0.3-0.1-0.6-0.2-0.9-0.2c-0.3,0-0.7,0.1-0.9,0.2
				c-0.3,0.1-0.5,0.3-0.7,0.6c-0.2,0.2-0.3,0.5-0.4,0.8c-0.1,0.3-0.1,0.6-0.1,0.9s0,0.6,0.1,0.9c0.1,0.3,0.2,0.6,0.4,0.8
				c0.2,0.2,0.4,0.4,0.7,0.6c0.3,0.1,0.6,0.2,0.9,0.2c0.3,0,0.6-0.1,0.9-0.2c0.3-0.1,0.5-0.3,0.7-0.5l1.2,1.2
				c-0.3,0.3-0.7,0.6-1.2,0.8c-0.5,0.2-1,0.3-1.6,0.3c-0.6,0-1.1-0.1-1.6-0.3c-0.5-0.2-0.9-0.4-1.3-0.8c-0.4-0.3-0.7-0.8-0.9-1.3
				c-0.2-0.5-0.3-1.1-0.3-1.7c0-0.6,0.1-1.2,0.3-1.7c0.2-0.5,0.5-0.9,0.9-1.3c0.4-0.3,0.8-0.6,1.3-0.8c0.5-0.2,1-0.3,1.6-0.3
				c0.6,0,1.1,0.1,1.6,0.3c0.5,0.2,0.9,0.5,1.2,0.9L66.1,93.4z"/>
			<path id="XMLID_234_" class="st0" d="M68.6,87h1.9v7.6h0l2.9-3.2h2.4l-3.3,3.4l3.5,4.2h-2.5l-3-3.9h0v3.9h-1.9V87z"/>
			<path id="XMLID_232_" class="st0" d="M81.2,93.4c-0.2-0.2-0.4-0.4-0.7-0.6c-0.3-0.2-0.6-0.2-1-0.2c-0.3,0-0.6,0.1-0.8,0.2
				c-0.3,0.1-0.4,0.3-0.4,0.6s0.1,0.5,0.4,0.6c0.3,0.1,0.7,0.2,1.2,0.4c0.3,0.1,0.6,0.1,0.9,0.3c0.3,0.1,0.6,0.2,0.8,0.4
				c0.2,0.2,0.4,0.4,0.6,0.6c0.1,0.3,0.2,0.6,0.2,0.9c0,0.5-0.1,0.9-0.3,1.2c-0.2,0.3-0.4,0.6-0.7,0.8c-0.3,0.2-0.6,0.3-1,0.4
				c-0.4,0.1-0.8,0.1-1.2,0.1c-0.6,0-1.2-0.1-1.7-0.3c-0.6-0.2-1-0.5-1.4-0.9l1.2-1.2c0.2,0.3,0.5,0.5,0.8,0.7
				c0.3,0.2,0.7,0.3,1.1,0.3c0.1,0,0.3,0,0.4,0s0.3-0.1,0.4-0.2c0.1-0.1,0.2-0.2,0.3-0.3c0.1-0.1,0.1-0.3,0.1-0.4
				c0-0.3-0.1-0.5-0.4-0.7c-0.3-0.1-0.7-0.3-1.3-0.4c-0.3-0.1-0.6-0.1-0.8-0.2c-0.3-0.1-0.5-0.2-0.7-0.4c-0.2-0.2-0.4-0.4-0.5-0.6
				c-0.1-0.2-0.2-0.5-0.2-0.9c0-0.4,0.1-0.8,0.3-1.1c0.2-0.3,0.4-0.6,0.7-0.8c0.3-0.2,0.6-0.3,1-0.4c0.4-0.1,0.7-0.1,1.1-0.1
				c0.5,0,1.1,0.1,1.6,0.3c0.5,0.2,0.9,0.5,1.2,0.9L81.2,93.4z"/>
		</g>
	</g>
</g>
</svg>
