<?xml version="1.0" encoding="UTF-8" standalone="no"?>
<svg
   xmlns:dc="http://purl.org/dc/elements/1.1/"
   xmlns:cc="http://creativecommons.org/ns#"
   xmlns:rdf="http://www.w3.org/1999/02/22-rdf-syntax-ns#"
   xmlns:svg="http://www.w3.org/2000/svg"
   xmlns="http://www.w3.org/2000/svg"
   viewBox="0 0 353.44 85.013336"
   height="85.013336"
   width="353.44"
   xml:space="preserve"
   id="svg2"
   version="1.1"><metadata
     id="metadata8"><rdf:RDF><cc:Work
         rdf:about=""><dc:format>image/svg+xml</dc:format><dc:type
           rdf:resource="http://purl.org/dc/dcmitype/StillImage" /></cc:Work></rdf:RDF></metadata><defs
     id="defs6"><clipPath
       id="clipPath20"
       clipPathUnits="userSpaceOnUse"><path
         id="path18"
         d="M 0,11.25 423.23,363.906 692.563,30.4688 532.273,4.80469 359.133,229.238 17.6602,0 Z" /></clipPath><linearGradient
       id="linearGradient28"
       spreadMethod="pad"
       gradientTransform="matrix(692.563,0,0,-692.563,0,181.953)"
       gradientUnits="userSpaceOnUse"
       y2="0"
       x2="1"
       y1="0"
       x1="0"><stop
         id="stop22"
         offset="0"
         style="stop-opacity:1;stop-color:#e4621b" /><stop
         id="stop24"
         offset="0.220859"
         style="stop-opacity:1;stop-color:#e4621b" /><stop
         id="stop26"
         offset="1"
         style="stop-opacity:1;stop-color:#ac3113" /></linearGradient><clipPath
       id="clipPath38"
       clipPathUnits="userSpaceOnUse"><path
         id="path36"
         d="M 702.371,626.441 279.141,273.73 9.78906,607.191 170.102,632.828 343.242,408.398 684.719,637.633 Z" /></clipPath><linearGradient
       id="linearGradient46"
       spreadMethod="pad"
       gradientTransform="matrix(692.583,0,0,-692.583,9.79,455.681)"
       gradientUnits="userSpaceOnUse"
       y2="0"
       x2="1"
       y1="0"
       x1="0"><stop
         id="stop40"
         offset="0"
         style="stop-opacity:1;stop-color:#0f4a82" /><stop
         id="stop42"
         offset="0.51583617"
         style="stop-opacity:1;stop-color:#94bdc5" /><stop
         id="stop44"
         offset="1"
         style="stop-opacity:1;stop-color:#94bdc5" /></linearGradient></defs><g
     transform="matrix(1.3333333,0,0,-1.3333333,0,85.013333)"
     id="g10"><g
       transform="scale(0.1)"
       id="g12"><g
         id="g14"><g
           clip-path="url(#clipPath20)"
           id="g16"><path
             id="path30"
             style="fill:url(#linearGradient28);fill-opacity:1;fill-rule:nonzero;stroke:none"
             d="M 0,11.25 423.23,363.906 692.563,30.4688 532.273,4.80469 359.133,229.238 17.6602,0 0,11.25" /></g></g><g
         id="g32"><g
           clip-path="url(#clipPath38)"
           id="g34"><path
             id="path48"
             style="fill:url(#linearGradient46);fill-opacity:1;fill-rule:nonzero;stroke:none"
             d="M 702.371,626.441 279.141,273.73 9.78906,607.191 170.102,632.828 l 173.14,-224.43 341.477,229.235 17.652,-11.192" /></g></g><path
         id="path50"
         style="fill:#a7a59e;fill-opacity:1;fill-rule:nonzero;stroke:none"
         d="M 693.848,205.547 H 628.902 L 768.137,491.66 h 78.527 l 33.535,-286.113 h -64.101 c 0,0 -16.973,221.164 -18.243,238.57 h -0.859 C 789.789,426.711 693.848,205.547 693.848,205.547" /><path
         id="path52"
         style="fill:#a7a59e;fill-opacity:1;fill-rule:nonzero;stroke:none"
         d="m 1045.75,367.273 c -4.67,2.129 -13.6,3.829 -22.08,3.829 -36.928,0 -63.256,-41.172 -63.256,-80.653 0,-20.801 9.336,-36.086 28.027,-36.086 19.939,0 40.319,22.071 46.689,57.305 z M 903.109,176.68 c 11.465,-6.789 36.934,-11.465 54.336,-11.465 30.567,0 53.485,13.582 61.975,55.183 l 3.4,17.415 h -0.84 c -16.14,-20.801 -34.816,-30.567 -59.437,-30.567 -41.18,0 -66.23,33.535 -66.648,73.856 0,68.769 48.816,136.699 139.235,136.699 29.29,0 55.19,-5.098 76.83,-14.434 l -31.41,-171.074 c -7.22,-38.211 -18.67,-72.168 -43.72,-92.117 -22.5,-17.832 -52.646,-23.352 -80.232,-23.352 -27.59,0 -53.489,5.098 -67.493,13.164 l 14.004,46.692" /><path
         id="path54"
         style="fill:#a7a59e;fill-opacity:1;fill-rule:nonzero;stroke:none"
         d="m 1237.17,491.66 h 61.14 l -36.09,-188.898 c -13.58,-72.594 -44.99,-101.883 -109.95,-101.883 -17.82,0 -37.77,2.969 -46.69,6.789 l 11.47,52.215 c 9.33,-2.969 20.37,-5.098 34.38,-5.098 26.74,0 43.3,13.164 51.37,55.613 l 34.37,181.262" /><path
         id="path56"
         style="fill:#a7a59e;fill-opacity:1;fill-rule:nonzero;stroke:none"
         d="m 1504.6,413.125 -26.74,-140.078 c -5.1,-26.328 -8.07,-48.82 -11.04,-67.5 h -53.91 l 3.81,33.965 h -0.84 c -21.23,-27.168 -46.7,-38.633 -71.73,-38.633 -33.12,0 -53.07,18.672 -53.07,58.152 0,11.465 1.27,23.77 4.24,38.203 l 21.66,115.891 h 61.12 l -20.8,-111.223 c -1.7,-9.336 -2.98,-19.519 -2.98,-27.168 0,-13.582 5.1,-24.187 20.8,-24.187 20.8,0 42.03,25.039 50.1,66.648 l 18.25,95.93 h 61.13" /><path
         id="path58"
         style="fill:#a7a59e;fill-opacity:1;fill-rule:nonzero;stroke:none"
         d="m 1502.89,205.547 26.31,140.086 c 5.1,26.32 8.5,49.238 11.04,67.492 h 54.34 l -4.24,-34.387 h 0.85 c 19.52,27.168 45.42,39.063 73,39.063 33.97,0 53.07,-20.801 53.07,-56.465 0,-9.336 -1.7,-25.039 -3.4,-35.234 l -22.92,-120.555 h -61.13 l 21.65,115.039 c 1.28,7.215 2.13,15.711 2.13,23.348 0,14.433 -5.1,24.621 -20.38,24.621 -19.95,0 -43.3,-25.051 -51.79,-70.887 l -17.4,-92.121 h -61.13" /><path
         id="path60"
         style="fill:#a7a59e;fill-opacity:1;fill-rule:nonzero;stroke:none"
         d="m 1876.85,211.914 c -13.15,-6.367 -34.38,-11.035 -59,-11.035 -51.37,0 -87.44,31.414 -87.44,85.32 0,73.867 56.45,131.602 135.41,131.602 17.83,0 33.11,-3.399 42.03,-6.797 l -14.87,-47.117 c -7.21,2.968 -15.7,5.086 -28.01,5.086 -43.72,0 -70.47,-36.934 -70.47,-75.977 0,-28.445 17.83,-42.879 40.75,-42.879 17.83,0 30.57,4.246 41.18,8.496 l 0.42,-46.699" /><path
         id="path62"
         style="fill:#a7a59e;fill-opacity:1;fill-rule:nonzero;stroke:none"
         d="m 2029.65,469.586 -10.6,-56.461 h 44.15 l -8.92,-46.27 h -44.15 l -14.01,-70.46 c -1.69,-8.075 -3.39,-19.11 -3.39,-26.329 0,-10.183 4.24,-17.398 17.4,-17.398 5.52,0 11.47,0 16.98,0.848 l -7.21,-47.969 c -7.65,-2.969 -22.93,-4.668 -36.09,-4.668 -36.5,0 -53.91,19.101 -53.91,45 0,11.457 1.28,22.488 4.25,38.621 l 16.13,82.355 h -26.32 l 8.49,46.27 h 26.74 l 7.64,39.059 62.82,17.402" /><path
         id="path64"
         style="fill:#a7a59e;fill-opacity:1;fill-rule:nonzero;stroke:none"
         d="m 2129.4,439.023 c -16.55,0 -29.29,11.461 -29.29,29.711 0.43,20.801 16.56,34.809 35.24,34.809 17.83,0 30.56,-11.883 30.56,-30.137 0,-21.648 -16.56,-34.383 -36.08,-34.383 z m -77.26,-233.476 39.49,207.578 h 61.12 l -39.47,-207.578 h -61.14" /><path
         id="path66"
         style="fill:#a7a59e;fill-opacity:1;fill-rule:nonzero;stroke:none"
         d="m 2218.54,287.898 c 0,-24.199 11.88,-40.332 33.11,-40.332 33.54,0 52.21,48.829 52.21,84.473 0,19.113 -8.06,39.492 -32.68,39.492 -35.24,0 -53.07,-51.367 -52.64,-83.633 z m 148.57,44.571 c 0,-75.985 -51.78,-131.59 -123.95,-131.59 -52.64,0 -87.87,34.383 -87.87,85.75 0,72.16 50.09,131.172 123.95,131.172 55.61,0 87.87,-38.211 87.87,-85.332" /><path
         id="path68"
         style="fill:#a7a59e;fill-opacity:1;fill-rule:nonzero;stroke:none"
         d="m 2369.22,205.547 26.32,140.086 c 5.1,26.32 8.5,49.238 11.04,67.492 h 54.33 l -4.24,-34.387 h 0.85 c 19.53,27.168 45.42,39.063 73.01,39.063 33.97,0 53.07,-20.801 53.07,-56.465 0,-9.336 -1.7,-25.039 -3.4,-35.234 l -22.92,-120.555 h -61.13 l 21.65,115.039 c 1.28,7.215 2.12,15.711 2.12,23.348 0,14.433 -5.09,24.621 -20.37,24.621 -19.96,0 -43.3,-25.051 -51.79,-70.887 l -17.4,-92.121 h -61.14" /><path
         id="path70"
         style="fill:#a7a59e;fill-opacity:1;fill-rule:nonzero;stroke:none"
         d="m 691.957,253.652 c 0,0 30.559,75.84 80.891,100.301 50.304,24.453 61.894,10.5 61.894,10.5 l 19.219,-67.531 c 0,0 -38.555,26.484 -89.547,0 -58.816,-30.574 -72.82,-61.863 -72.82,-61.863 l 0.363,18.593" /><path
         id="path72"
         style="fill:#a7a59e;fill-opacity:1;fill-rule:nonzero;stroke:none"
         d="m 2627.63,446.461 h 2.16 c 2.52,0 4.56,0.84 4.56,2.879 0,1.797 -1.32,3 -4.2,3 -1.2,0 -2.04,-0.129 -2.52,-0.246 z m -0.12,-11.035 h -4.56 v 19.668 c 1.8,0.242 4.32,0.605 7.56,0.605 3.72,0 5.39,-0.605 6.72,-1.562 1.19,-0.84 2.03,-2.278 2.03,-4.199 0,-2.403 -1.79,-3.958 -4.07,-4.68 v -0.235 c 1.91,-0.605 2.87,-2.168 3.48,-4.804 0.59,-2.996 1.07,-4.071 1.43,-4.793 h -4.79 c -0.6,0.722 -0.96,2.402 -1.56,4.793 -0.36,2.043 -1.56,3 -4.08,3 h -2.16 z m -12.11,10.195 c 0,-8.762 6.6,-15.715 15.35,-15.715 8.51,-0.117 14.99,6.953 14.99,15.598 0,8.75 -6.48,15.828 -15.23,15.828 -8.51,0 -15.11,-7.078 -15.11,-15.711 z m 35.38,0 c 0,-11.035 -8.87,-19.785 -20.15,-19.785 -11.27,0 -20.26,8.75 -20.26,19.785 0,11.035 8.99,19.668 20.38,19.668 11.16,0 20.03,-8.633 20.03,-19.668" /></g></g></svg>