<svg xmlns="http://www.w3.org/2000/svg" width="5.25in" height="3.71in" viewBox="0 0 378.2 267.04"><defs><style>.a{fill:#491d55;}</style></defs><title>XYZ-logo-tagline</title><path class="a" d="M386.6,61.54c0-28.79-23.42-53.84-52.21-53.84H104a53.57,53.57,0,0,0-50.78,70.2A54.06,54.06,0,0,0,26.41,92.18C16,102.46,10.3,116.82,10.3,132.62c0,16,5.91,30.41,16.63,40.66,7.17,6.85,19.79,15,39.24,15h37.06a53.73,53.73,0,0,0,27.73-7.7,52.59,52.59,0,0,0,52.72,47,79.67,79.67,0,0,0,53.41-20.23,101.59,101.59,0,0,0,20.63-25.67,51.45,51.45,0,0,0,22.09,5H336a51.86,51.86,0,0,0,51.8-51.8Zm-320.43,85c-8.56,0-13.44-4.28-13.44-13.24,0-9.17,4.89-13.64,13.44-13.64s13.24,4.48,13.24,13.64C79.41,142.24,74.72,146.51,66.17,146.51Zm94.5,0a11.08,11.08,0,0,1-8.76-4.28c-6.31-8.76-20-28.11-20-28.11s-13.64,19.35-20,28.11a11.09,11.09,0,0,1-8.76,4.28,11,11,0,0,1-8.76-17.72l24.64-31L95.29,68.51A10.69,10.69,0,0,1,93,61.79a11,11,0,0,1,11-11,11.1,11.1,0,0,1,8.76,4.28l19.15,26.27,19.15-26.27a11.1,11.1,0,0,1,8.76-4.28,11,11,0,0,1,11,11,10.68,10.68,0,0,1-2.24,6.72L144.78,97.84l24.64,31A11,11,0,0,1,160.67,146.51ZM263.72,66.07l-37.88,85.54c-9,20-21.79,34.22-42.16,34.22-5.91,0-10.59-4.28-10.59-10.18s4.69-10.19,10.59-10.19c13,0,19.14-10.39,25.87-27.09l-31.37-72.3a11.38,11.38,0,0,1-.81-4.28,11,11,0,0,1,11-11,10.72,10.72,0,0,1,10.18,6.92L221,114.33l22.4-56.62a10.73,10.73,0,0,1,10.18-6.92,11,11,0,0,1,11,11A11.41,11.41,0,0,1,263.72,66.07ZM336,144.88H279.81a9.48,9.48,0,0,1-9.37-9.37,9.24,9.24,0,0,1,2.24-6.11L297,96.89h0l15.36-20.6,4.14-5.55H282a9.17,9.17,0,1,1,0-18.33h52.34a9.84,9.84,0,0,1,7.54,16.09l-43,57.64H336A9.37,9.37,0,0,1,336,144.88Z" transform="translate(-10.17 -7.7)"/><path class="a" d="M10.17,267V249.44a1.72,1.72,0,0,1,.52-1.26,1.74,1.74,0,0,1,1.28-.52h9.67a1.6,1.6,0,0,1,1.6,1.6,1.57,1.57,0,0,1-.47,1.14,1.54,1.54,0,0,1-1.14.48H13.76v5.72h5.87a1.51,1.51,0,0,1,1.11.46,1.58,1.58,0,0,1,0,2.24,1.51,1.51,0,0,1-1.11.46H13.76V267a1.8,1.8,0,0,1-3.06,1.26A1.72,1.72,0,0,1,10.17,267Z" transform="translate(-10.17 -7.7)"/><path class="a" d="M23.55,261.48q0-3.73,1.79-5.6a6.61,6.61,0,0,1,5-1.87,6.51,6.51,0,0,1,5,1.87q1.76,1.87,1.76,5.6A7.82,7.82,0,0,1,35.32,267a6.52,6.52,0,0,1-5,1.87,6.62,6.62,0,0,1-5-1.87A7.73,7.73,0,0,1,23.55,261.48Zm3.4,0a5.72,5.72,0,0,0,.86,3.43,3,3,0,0,0,2.54,1.16,3,3,0,0,0,2.54-1.16,5.73,5.73,0,0,0,.86-3.43q0-4.62-3.4-4.62T27,261.48Z" transform="translate(-10.17 -7.7)"/><path class="a" d="M39.56,267.08V255.85a1.6,1.6,0,0,1,.49-1.18,1.67,1.67,0,0,1,2.85,1.19V256a3.35,3.35,0,0,1,1.4-1.44,3.9,3.9,0,0,1,2-.55,1.58,1.58,0,0,1,0,3.16,3.24,3.24,0,0,0-2.47.94,3.5,3.5,0,0,0-.89,2.51v6.44a1.6,1.6,0,0,1-.49,1.18,1.69,1.69,0,0,1-2.37,0A1.6,1.6,0,0,1,39.56,267.08Z" transform="translate(-10.17 -7.7)"/><path class="a" d="M56,261.38a7.78,7.78,0,0,1,1.76-5.45A6.35,6.35,0,0,1,62.66,254a7.43,7.43,0,0,1,2.66.44,4.79,4.79,0,0,1,2.88,2.6,6.65,6.65,0,0,1,.55,1.6,7.93,7.93,0,0,1,.14,1.46q0,0.48,0,.73a3.84,3.84,0,0,1-.11.66,1.44,1.44,0,0,1-.28.61,1.54,1.54,0,0,1-.56.37,2.36,2.36,0,0,1-.93.16H59.31a2.94,2.94,0,0,0,1,2.42,4,4,0,0,0,2.62.82,5.45,5.45,0,0,0,3.08-1,2,2,0,0,1,1-.33,1.42,1.42,0,0,1,1,.42,1.39,1.39,0,0,1,.43,1A1.49,1.49,0,0,1,68,267.2a5.5,5.5,0,0,1-.91.68,7.53,7.53,0,0,1-1.68.68,8.27,8.27,0,0,1-2.44.35A6.86,6.86,0,0,1,57.79,267Q56,265.18,56,261.38Zm3.44-1.58h6.14a3.11,3.11,0,0,0-.74-2.09,2.67,2.67,0,0,0-2.15-.86,3.34,3.34,0,0,0-2.28.76A3.06,3.06,0,0,0,59.4,259.8Z" transform="translate(-10.17 -7.7)"/><path class="a" d="M70,255.85a1.65,1.65,0,0,1,1.66-1.67,1.54,1.54,0,0,1,1,.33,1.76,1.76,0,0,1,.54.72l3.41,8.63L80,255.23a1.76,1.76,0,0,1,.54-0.72,1.54,1.54,0,0,1,1-.33,1.65,1.65,0,0,1,1.66,1.67,1.74,1.74,0,0,1-.12.65l-5,11.23a1.74,1.74,0,0,1-.61.74,1.62,1.62,0,0,1-.93.27,1.65,1.65,0,0,1-.94-0.27,1.72,1.72,0,0,1-.62-0.74L70.13,256.5A1.73,1.73,0,0,1,70,255.85Z" transform="translate(-10.17 -7.7)"/><path class="a" d="M84.55,261.38a7.78,7.78,0,0,1,1.76-5.45A6.35,6.35,0,0,1,91.25,254a7.43,7.43,0,0,1,2.66.44,4.79,4.79,0,0,1,2.88,2.6,6.65,6.65,0,0,1,.55,1.6,7.93,7.93,0,0,1,.14,1.46q0,0.48,0,.73a3.84,3.84,0,0,1-.11.66,1.44,1.44,0,0,1-.28.61,1.54,1.54,0,0,1-.56.37,2.36,2.36,0,0,1-.93.16H87.9a2.94,2.94,0,0,0,1,2.42,4,4,0,0,0,2.62.82,5.45,5.45,0,0,0,3.08-1,2,2,0,0,1,1-.33,1.42,1.42,0,0,1,1,.42,1.39,1.39,0,0,1,.43,1,1.49,1.49,0,0,1-.53,1.16,5.5,5.5,0,0,1-.91.68,7.53,7.53,0,0,1-1.68.68,8.27,8.27,0,0,1-2.44.35A6.86,6.86,0,0,1,86.37,267Q84.55,265.18,84.55,261.38ZM88,259.8h6.14a3.11,3.11,0,0,0-.74-2.09,2.67,2.67,0,0,0-2.15-.86,3.34,3.34,0,0,0-2.28.76A3.06,3.06,0,0,0,88,259.8Z" transform="translate(-10.17 -7.7)"/><path class="a" d="M99.76,267.08V255.85a1.6,1.6,0,0,1,.49-1.18,1.67,1.67,0,0,1,2.85,1.19V256a3.35,3.35,0,0,1,1.4-1.44,3.9,3.9,0,0,1,2-.55,1.58,1.58,0,0,1,0,3.16,3.24,3.24,0,0,0-2.47.94,3.5,3.5,0,0,0-.89,2.51v6.44a1.6,1.6,0,0,1-.49,1.18,1.69,1.69,0,0,1-2.37,0A1.6,1.6,0,0,1,99.76,267.08Z" transform="translate(-10.17 -7.7)"/><path class="a" d="M109.53,274.29a1.53,1.53,0,0,1-.46-1.13,1.5,1.5,0,0,1,.46-1.13,1.58,1.58,0,0,1,1.14-.45,2.79,2.79,0,0,0,2.23-1,11.61,11.61,0,0,0,1.71-3.13l-4.77-11a1.72,1.72,0,0,1-.12-0.65,1.65,1.65,0,0,1,1.66-1.66,1.55,1.55,0,0,1,1,.32,1.75,1.75,0,0,1,.54.72l3.41,8.6,3.41-8.6a1.75,1.75,0,0,1,.54-0.72,1.54,1.54,0,0,1,1-.32,1.65,1.65,0,0,1,1.66,1.66,1.73,1.73,0,0,1-.12.65l-5.77,13q-2.33,5.21-6.42,5.21A1.57,1.57,0,0,1,109.53,274.29Z" transform="translate(-10.17 -7.7)"/><path class="a" d="M130.71,255.85a1.65,1.65,0,0,1,1.66-1.67,1.69,1.69,0,0,1,1,.29,1.6,1.6,0,0,1,.61.79l2.57,7.61,2.07-7.49a1.73,1.73,0,0,1,.55-0.85,1.54,1.54,0,0,1,1.05-.36,1.63,1.63,0,0,1,1,.34,1.49,1.49,0,0,1,.56.78l2.07,7.58,2.54-7.61a1.56,1.56,0,0,1,.61-0.8,1.75,1.75,0,0,1,1-.29,1.68,1.68,0,0,1,1.2.45,1.51,1.51,0,0,1,.48,1.15,1.65,1.65,0,0,1-.15.65L145.3,267.7a1.49,1.49,0,0,1-1.54,1,1.67,1.67,0,0,1-1-.33,1.64,1.64,0,0,1-.61-0.84l-1.92-6.79-1.92,6.76a1.6,1.6,0,0,1-.6.86,1.71,1.71,0,0,1-2,0,1.66,1.66,0,0,1-.61-0.77l-4.24-11.06A1.87,1.87,0,0,1,130.71,255.85Z" transform="translate(-10.17 -7.7)"/><path class="a" d="M150.49,261.38a7.78,7.78,0,0,1,1.76-5.45,6.35,6.35,0,0,1,4.94-1.92,7.43,7.43,0,0,1,2.66.44,4.79,4.79,0,0,1,2.88,2.6,6.65,6.65,0,0,1,.55,1.6,7.93,7.93,0,0,1,.14,1.46q0,0.48,0,.73a3.84,3.84,0,0,1-.11.66,1.44,1.44,0,0,1-.28.61,1.54,1.54,0,0,1-.56.37,2.36,2.36,0,0,1-.93.16h-7.68a2.94,2.94,0,0,0,1,2.42,4,4,0,0,0,2.62.82,5.45,5.45,0,0,0,3.08-1,2,2,0,0,1,1-.33,1.42,1.42,0,0,1,1,.42,1.39,1.39,0,0,1,.43,1,1.49,1.49,0,0,1-.53,1.16,5.5,5.5,0,0,1-.91.68,7.53,7.53,0,0,1-1.68.68,8.27,8.27,0,0,1-2.44.35,6.86,6.86,0,0,1-5.15-1.87Q150.49,265.18,150.49,261.38Zm3.44-1.58h6.14a3.11,3.11,0,0,0-.74-2.09,2.67,2.67,0,0,0-2.15-.86,3.34,3.34,0,0,0-2.28.76A3.06,3.06,0,0,0,153.92,259.8Z" transform="translate(-10.17 -7.7)"/><path class="a" d="M165.7,262.71v-14.6a1.6,1.6,0,0,1,.49-1.18,1.69,1.69,0,0,1,2.37,0,1.6,1.6,0,0,1,.49,1.18v7.13a4.13,4.13,0,0,1,1.43-.86,5.41,5.41,0,0,1,2-.36,5.88,5.88,0,0,1,4.66,1.88,8.23,8.23,0,0,1,1.66,5.59q0,3.72-1.73,5.58a6.41,6.41,0,0,1-4.94,1.86,6.63,6.63,0,0,1-4.66-1.6A5.92,5.92,0,0,1,165.7,262.71Zm3.34,0a3.43,3.43,0,0,0,.84,2.46,2.92,2.92,0,0,0,2.22.89,2.87,2.87,0,0,0,2.47-1.16,7.38,7.38,0,0,0,0-6.89,2.87,2.87,0,0,0-2.46-1.17,3.64,3.64,0,0,0-1.89.55,6.23,6.23,0,0,0-.63.47,3.51,3.51,0,0,0-.41.4l-0.14.15v4.29Z" transform="translate(-10.17 -7.7)"/><path class="a" d="M180.45,265.72a1.43,1.43,0,0,1,.45-1.05,1.45,1.45,0,0,1,1.06-.45,1.59,1.59,0,0,1,1,.37,5.39,5.39,0,0,0,3.42,1.24q2.31,0,2.31-1.24a1.1,1.1,0,0,0-.33-0.78,2.31,2.31,0,0,0-.86-0.55l-1.22-.44q-0.68-.23-1.39-0.44a6.91,6.91,0,0,1-1.39-.58,7.33,7.33,0,0,1-1.22-.83,3.25,3.25,0,0,1-.86-1.2,4.15,4.15,0,0,1-.33-1.68,3.52,3.52,0,0,1,1.46-3,6.17,6.17,0,0,1,3.72-1.06,8.19,8.19,0,0,1,3,.53,4.82,4.82,0,0,1,2,1.35,1.46,1.46,0,0,1,.3.9,1.5,1.5,0,0,1-1.48,1.48,1.94,1.94,0,0,1-1.06-.42,4.66,4.66,0,0,0-2.78-1,2.53,2.53,0,0,0-1.35.3,1,1,0,0,0-.48.88,1,1,0,0,0,.42.8,3.58,3.58,0,0,0,1.09.58q0.67,0.23,1.48.47a13.66,13.66,0,0,1,1.63.58,7.93,7.93,0,0,1,1.47.82,3.57,3.57,0,0,1,1.08,1.27,3.88,3.88,0,0,1,.42,1.84,3.83,3.83,0,0,1-1.59,3.3,6.78,6.78,0,0,1-4.09,1.15,7.93,7.93,0,0,1-3.31-.67,5.91,5.91,0,0,1-2.16-1.51A1.51,1.51,0,0,1,180.45,265.72Z" transform="translate(-10.17 -7.7)"/><path class="a" d="M194.24,250.56a2,2,0,1,1,4,0,1.93,1.93,0,0,1-.52,1.44,2,2,0,0,1-1.49.51A1.8,1.8,0,0,1,194.24,250.56Zm0.32,16.53V255.85a1.65,1.65,0,0,1,1.67-1.67,1.63,1.63,0,0,1,1.19.48,1.6,1.6,0,0,1,.49,1.18v11.23a1.59,1.59,0,0,1-.49,1.18,1.63,1.63,0,0,1-1.19.48A1.65,1.65,0,0,1,194.56,267.08Z" transform="translate(-10.17 -7.7)"/><path class="a" d="M200.38,256.85a1.4,1.4,0,0,1-.41-1,1.38,1.38,0,0,1,.41-1,1.33,1.33,0,0,1,1-.42h0.71v-2.58a1.53,1.53,0,0,1,.49-1.14,1.61,1.61,0,0,1,1.16-.48,1.58,1.58,0,0,1,1.15.48,1.55,1.55,0,0,1,.48,1.14v2.58h1.39a1.33,1.33,0,0,1,1,.42,1.38,1.38,0,0,1,.41,1,1.4,1.4,0,0,1-.41,1,1.32,1.32,0,0,1-1,.42h-1.39v7.5a1,1,0,0,0,.36.81,1.23,1.23,0,0,0,.82.31,1.42,1.42,0,0,1,1,.41,1.41,1.41,0,0,1,0,2,1.42,1.42,0,0,1-1,.42,4.49,4.49,0,0,1-3.25-1.17,4,4,0,0,1-1.21-3v-7.28h-0.71A1.32,1.32,0,0,1,200.38,256.85Z" transform="translate(-10.17 -7.7)"/><path class="a" d="M209.84,261.38a7.78,7.78,0,0,1,1.76-5.45,6.35,6.35,0,0,1,4.94-1.92,7.43,7.43,0,0,1,2.66.44,4.79,4.79,0,0,1,2.88,2.6,6.65,6.65,0,0,1,.55,1.6,7.93,7.93,0,0,1,.14,1.46q0,0.48,0,.73a3.84,3.84,0,0,1-.11.66,1.44,1.44,0,0,1-.28.61,1.54,1.54,0,0,1-.56.37,2.36,2.36,0,0,1-.93.16h-7.68a2.94,2.94,0,0,0,1,2.42,4,4,0,0,0,2.62.82,5.45,5.45,0,0,0,3.08-1,2,2,0,0,1,1-.33,1.42,1.42,0,0,1,1,.42,1.39,1.39,0,0,1,.43,1,1.49,1.49,0,0,1-.53,1.16,5.5,5.5,0,0,1-.91.68,7.53,7.53,0,0,1-1.68.68,8.27,8.27,0,0,1-2.44.35,6.86,6.86,0,0,1-5.15-1.87Q209.84,265.18,209.84,261.38Zm3.44-1.58h6.14a3.11,3.11,0,0,0-.74-2.09,2.67,2.67,0,0,0-2.15-.86,3.34,3.34,0,0,0-2.28.76A3.06,3.06,0,0,0,213.28,259.8Z" transform="translate(-10.17 -7.7)"/><path class="a" d="M224,273.12a0.74,0.74,0,0,1,.18-0.47q0.47-.59.69-0.88a3.68,3.68,0,0,0,.42-0.85,3.24,3.24,0,0,0,.21-1.14,3.1,3.1,0,0,0-.57-1.52,3.1,3.1,0,0,1-.57-1.52,2,2,0,1,1,4.07,0,8.56,8.56,0,0,1-1,4,8.36,8.36,0,0,1-2.28,2.84,0.82,0.82,0,0,1-.5.18A0.67,0.67,0,0,1,224,273.12Z" transform="translate(-10.17 -7.7)"/><path class="a" d="M236.52,261.38a7.78,7.78,0,0,1,1.76-5.45,6.35,6.35,0,0,1,4.94-1.92,7.43,7.43,0,0,1,2.66.44,4.79,4.79,0,0,1,2.88,2.6,6.65,6.65,0,0,1,.55,1.6,7.93,7.93,0,0,1,.14,1.46q0,0.48,0,.73a3.84,3.84,0,0,1-.11.66,1.44,1.44,0,0,1-.28.61,1.54,1.54,0,0,1-.56.37,2.36,2.36,0,0,1-.93.16h-7.68a2.94,2.94,0,0,0,1,2.42,4,4,0,0,0,2.62.82,5.45,5.45,0,0,0,3.08-1,2,2,0,0,1,1-.33,1.42,1.42,0,0,1,1,.42,1.39,1.39,0,0,1,.43,1,1.49,1.49,0,0,1-.53,1.16,5.5,5.5,0,0,1-.91.68,7.53,7.53,0,0,1-1.68.68,8.27,8.27,0,0,1-2.44.35,6.86,6.86,0,0,1-5.15-1.87Q236.52,265.18,236.52,261.38ZM240,259.8h6.14a3.11,3.11,0,0,0-.74-2.09,2.67,2.67,0,0,0-2.15-.86,3.34,3.34,0,0,0-2.28.76A3.06,3.06,0,0,0,240,259.8Z" transform="translate(-10.17 -7.7)"/><path class="a" d="M250.57,255.85a1.65,1.65,0,0,1,1.66-1.67,1.54,1.54,0,0,1,1,.33,1.76,1.76,0,0,1,.54.72l3.41,8.63,3.41-8.63a1.76,1.76,0,0,1,.54-0.72,1.54,1.54,0,0,1,1-.33,1.65,1.65,0,0,1,1.66,1.67,1.74,1.74,0,0,1-.12.65l-5,11.23a1.74,1.74,0,0,1-.61.74,1.62,1.62,0,0,1-.93.27,1.65,1.65,0,0,1-.94-0.27,1.72,1.72,0,0,1-.62-0.74l-4.95-11.23A1.73,1.73,0,0,1,250.57,255.85Z" transform="translate(-10.17 -7.7)"/><path class="a" d="M265.11,261.38a7.78,7.78,0,0,1,1.76-5.45,6.35,6.35,0,0,1,4.94-1.92,7.43,7.43,0,0,1,2.66.44,4.79,4.79,0,0,1,2.88,2.6,6.65,6.65,0,0,1,.55,1.6,7.93,7.93,0,0,1,.14,1.46q0,0.48,0,.73a3.84,3.84,0,0,1-.11.66,1.44,1.44,0,0,1-.28.61,1.54,1.54,0,0,1-.56.37,2.36,2.36,0,0,1-.93.16h-7.68a2.94,2.94,0,0,0,1,2.42,4,4,0,0,0,2.62.82,5.45,5.45,0,0,0,3.08-1,2,2,0,0,1,1-.33,1.42,1.42,0,0,1,1,.42,1.39,1.39,0,0,1,.43,1,1.49,1.49,0,0,1-.53,1.16,5.5,5.5,0,0,1-.91.68,7.53,7.53,0,0,1-1.68.68,8.27,8.27,0,0,1-2.44.35,6.86,6.86,0,0,1-5.15-1.87Q265.11,265.18,265.11,261.38Zm3.44-1.58h6.14a3.11,3.11,0,0,0-.74-2.09,2.67,2.67,0,0,0-2.15-.86,3.34,3.34,0,0,0-2.28.76A3.06,3.06,0,0,0,268.55,259.8Z" transform="translate(-10.17 -7.7)"/><path class="a" d="M280.32,267.08V255.85a1.6,1.6,0,0,1,.49-1.18,1.67,1.67,0,0,1,2.85,1.19V256a3.35,3.35,0,0,1,1.4-1.44,3.9,3.9,0,0,1,2-.55,1.58,1.58,0,0,1,0,3.16,3.24,3.24,0,0,0-2.47.94,3.5,3.5,0,0,0-.89,2.51v6.44a1.6,1.6,0,0,1-.49,1.18,1.69,1.69,0,0,1-2.37,0A1.6,1.6,0,0,1,280.32,267.08Z" transform="translate(-10.17 -7.7)"/><path class="a" d="M290.09,274.29a1.53,1.53,0,0,1-.46-1.13,1.5,1.5,0,0,1,.46-1.13,1.58,1.58,0,0,1,1.14-.45,2.79,2.79,0,0,0,2.23-1,11.61,11.61,0,0,0,1.71-3.13l-4.77-11a1.72,1.72,0,0,1-.12-0.65,1.65,1.65,0,0,1,1.66-1.66,1.55,1.55,0,0,1,1,.32,1.75,1.75,0,0,1,.54.72l3.41,8.6,3.41-8.6a1.75,1.75,0,0,1,.54-0.72,1.54,1.54,0,0,1,1-.32,1.65,1.65,0,0,1,1.66,1.66,1.73,1.73,0,0,1-.12.65l-5.77,13q-2.33,5.21-6.42,5.21A1.57,1.57,0,0,1,290.09,274.29Z" transform="translate(-10.17 -7.7)"/><path class="a" d="M304.28,255.85a1.65,1.65,0,0,1,1.66-1.67,1.69,1.69,0,0,1,1,.29,1.6,1.6,0,0,1,.61.79l2.57,7.61,2.07-7.49a1.73,1.73,0,0,1,.55-0.85,1.54,1.54,0,0,1,1.05-.36,1.63,1.63,0,0,1,1,.34,1.49,1.49,0,0,1,.56.78l2.07,7.58,2.54-7.61a1.56,1.56,0,0,1,.61-0.8,1.75,1.75,0,0,1,1-.29,1.68,1.68,0,0,1,1.2.45,1.51,1.51,0,0,1,.48,1.15,1.65,1.65,0,0,1-.15.65l-4.25,11.26a1.49,1.49,0,0,1-1.54,1,1.67,1.67,0,0,1-1-.33,1.64,1.64,0,0,1-.61-0.84l-1.92-6.79-1.92,6.76a1.6,1.6,0,0,1-.6.86,1.71,1.71,0,0,1-2,0,1.66,1.66,0,0,1-.61-0.77l-4.24-11.06A1.87,1.87,0,0,1,304.28,255.85Z" transform="translate(-10.17 -7.7)"/><path class="a" d="M325.15,267.14v-19a1.6,1.6,0,0,1,.49-1.18,1.69,1.69,0,0,1,2.37,0,1.6,1.6,0,0,1,.49,1.18v7.75a4.1,4.1,0,0,1,1.52-1.31,5.16,5.16,0,0,1,2.45-.54q5.21,0,5.21,5.39v7.75a1.5,1.5,0,0,1-.49,1.14,1.68,1.68,0,0,1-1.19.46,1.64,1.64,0,0,1-1.2-.45,1.54,1.54,0,0,1-.46-1.15V260q0-3-2.75-3-3.1,0-3.1,3.19v6.92a1.51,1.51,0,0,1-.48,1.15,1.79,1.79,0,0,1-2.38,0A1.51,1.51,0,0,1,325.15,267.14Z" transform="translate(-10.17 -7.7)"/><path class="a" d="M340,261.38a7.78,7.78,0,0,1,1.76-5.45,6.35,6.35,0,0,1,4.94-1.92,7.43,7.43,0,0,1,2.66.44,4.79,4.79,0,0,1,2.88,2.6,6.65,6.65,0,0,1,.55,1.6,7.93,7.93,0,0,1,.14,1.46q0,0.48,0,.73a3.84,3.84,0,0,1-.11.66,1.44,1.44,0,0,1-.28.61,1.54,1.54,0,0,1-.56.37,2.36,2.36,0,0,1-.93.16h-7.68a2.94,2.94,0,0,0,1,2.42,4,4,0,0,0,2.62.82,5.45,5.45,0,0,0,3.08-1,2,2,0,0,1,1-.33,1.42,1.42,0,0,1,1,.42,1.39,1.39,0,0,1,.43,1,1.49,1.49,0,0,1-.53,1.16,5.5,5.5,0,0,1-.91.68,7.53,7.53,0,0,1-1.68.68,8.27,8.27,0,0,1-2.44.35A6.86,6.86,0,0,1,341.8,267Q340,265.18,340,261.38Zm3.44-1.58h6.14a3.11,3.11,0,0,0-.74-2.09,2.67,2.67,0,0,0-2.15-.86,3.34,3.34,0,0,0-2.28.76A3.06,3.06,0,0,0,343.41,259.8Z" transform="translate(-10.17 -7.7)"/><path class="a" d="M355.19,267.08V255.85a1.6,1.6,0,0,1,.49-1.18,1.67,1.67,0,0,1,2.85,1.19V256a3.35,3.35,0,0,1,1.4-1.44,3.9,3.9,0,0,1,2-.55,1.58,1.58,0,0,1,0,3.16,3.24,3.24,0,0,0-2.47.94,3.5,3.5,0,0,0-.89,2.51v6.44a1.6,1.6,0,0,1-.49,1.18,1.69,1.69,0,0,1-2.37,0A1.6,1.6,0,0,1,355.19,267.08Z" transform="translate(-10.17 -7.7)"/><path class="a" d="M364.3,261.38a7.78,7.78,0,0,1,1.76-5.45A6.35,6.35,0,0,1,371,254a7.43,7.43,0,0,1,2.66.44,4.79,4.79,0,0,1,2.88,2.6,6.65,6.65,0,0,1,.55,1.6,7.93,7.93,0,0,1,.14,1.46q0,0.48,0,.73a3.84,3.84,0,0,1-.11.66,1.44,1.44,0,0,1-.28.61,1.54,1.54,0,0,1-.56.37,2.36,2.36,0,0,1-.93.16h-7.68a2.94,2.94,0,0,0,1,2.42,4,4,0,0,0,2.62.82,5.45,5.45,0,0,0,3.08-1,2,2,0,0,1,1-.33,1.42,1.42,0,0,1,1,.42,1.39,1.39,0,0,1,.43,1,1.49,1.49,0,0,1-.53,1.16,5.5,5.5,0,0,1-.91.68,7.53,7.53,0,0,1-1.68.68,8.27,8.27,0,0,1-2.44.35,6.86,6.86,0,0,1-5.15-1.87Q364.3,265.18,364.3,261.38Zm3.44-1.58h6.14a3.11,3.11,0,0,0-.74-2.09,2.67,2.67,0,0,0-2.15-.86,3.34,3.34,0,0,0-2.28.76A3.06,3.06,0,0,0,367.73,259.8Z" transform="translate(-10.17 -7.7)"/><path class="a" d="M380.4,255.48a4.82,4.82,0,0,1-1.2-3.56,4.74,4.74,0,0,1,1.2-3.53,4.59,4.59,0,0,1,3.36-1.17,4.7,4.7,0,0,1,3.43,1.17,4.76,4.76,0,0,1,1.19,3.54,4.82,4.82,0,0,1-1.2,3.56,4.64,4.64,0,0,1-3.42,1.19A4.54,4.54,0,0,1,380.4,255.48Zm-0.14-3.56q0,3.85,3.53,3.84t3.53-3.84q0-3.84-3.53-3.84a3.49,3.49,0,0,0-2.65.92A4.12,4.12,0,0,0,380.26,251.92Zm1.73,2v-4a0.38,0.38,0,0,1,.12-0.27,0.4,0.4,0,0,1,.29-0.12h1.8a1.46,1.46,0,0,1,1.11.45,1.49,1.49,0,0,1,.43,1.06,1.63,1.63,0,0,1-.36,1.1,1.12,1.12,0,0,1-.89.42l1,1.12a0.44,0.44,0,0,1,.09.27,0.44,0.44,0,0,1-.44.44,0.43,0.43,0,0,1-.36-0.18l-1.21-1.65h-0.65v1.36A0.47,0.47,0,0,1,382,253.9Zm0.94-2.16h1.13a0.65,0.65,0,0,0,.76-0.71,0.7,0.7,0,0,0-.2-0.51,0.76,0.76,0,0,0-.56-0.2h-1.13v1.42Z" transform="translate(-10.17 -7.7)"/></svg>